<?xml version="1.0" encoding="iso-8859-1"?>
<!-- Generator: Adobe Illustrator 16.0.0, SVG Export Plug-In . SVG Version: 6.00 Build 0)  -->
<!DOCTYPE svg PUBLIC "-//W3C//DTD SVG 1.1//EN" "http://www.w3.org/Graphics/SVG/1.1/DTD/svg11.dtd">
<svg version="1.1" id="Capa_1" xmlns="http://www.w3.org/2000/svg" xmlns:xlink="http://www.w3.org/1999/xlink" x="0px" y="0px"
	 width="183.789px" height="183.789px" viewBox="0 0 183.789 183.789" style="enable-background:new 0 0 183.789 183.789;"
	 xml:space="preserve">
<g>
	<path d="M76.474,1.237c-55.331,9.732-89.151,79.8-66.654,129.628c24.676,54.654,85.739,66.038,135.514,38.491
		c6.099-3.375,0.642-12.727-5.456-9.335c-37.914,21.093-83.37,19.126-111.052-17.218C1.692,107.179,12.841,60.955,42.96,31.558
		C79.738-4.34,137.34,9.013,161.517,52.055c11.809,21.023,11.911,51.583-5.22,69.643c-10.384,10.944-23.689,0.338-28.991-8.4
		c-3.16-5.207-4.386-12.798-5.227-18.956c1.685-12.36,0.376-25.739-1.389-36.253c-1.036-6.17-10.616-4.504-10.641,1.439
		c-0.018,4.02-0.072,8.181-0.077,12.39c-13.208-33.824-74.858-12.17-66.536,25.026c5.45,24.356,28.9,37.897,52.752,31.503
		c9.396-2.52,15.697-7.979,19.808-15.018c3.413,7.917,8.697,14.865,16.978,20.015c24.626,15.311,42.583-16.203,46.531-35.745
		C191.396,38.846,130.837-8.325,76.474,1.237z M103.152,111.667c-16.926,20.018-47.282,1.505-49.505-19.98
		c-2.762-26.697,41.823-37.172,52.1-12.693c0.85,2.023,2.881,2.452,4.337,1.753c0.144,4.818,0.454,9.633,1.087,14.334
		C109.848,101.022,107.387,106.661,103.152,111.667z"/>
</g>
<g>
</g>
<g>
</g>
<g>
</g>
<g>
</g>
<g>
</g>
<g>
</g>
<g>
</g>
<g>
</g>
<g>
</g>
<g>
</g>
<g>
</g>
<g>
</g>
<g>
</g>
<g>
</g>
<g>
</g>
</svg>
