<?xml version="1.0" encoding="iso-8859-1"?>
<!-- Generator: Adobe Illustrator 18.0.0, SVG Export Plug-In . SVG Version: 6.00 Build 0)  -->
<!DOCTYPE svg PUBLIC "-//W3C//DTD SVG 1.1//EN" "http://www.w3.org/Graphics/SVG/1.1/DTD/svg11.dtd">
<svg version="1.1" id="Capa_1" xmlns="http://www.w3.org/2000/svg" xmlns:xlink="http://www.w3.org/1999/xlink" x="0px" y="0px"
	 viewBox="0 0 49.721 49.721" style="enable-background:new 0 0 49.721 49.721;" xml:space="preserve">
<g>
	<path style="fill:#1D1D1B;" d="M49.173,9.152c-1.669-0.045-3.264,0.241-4.769,0.892c0.116-0.199,0.217-0.407,0.325-0.611
		c0.145,0.001,0.212-0.167,0.133-0.25c0.663-1.303,1.208-2.679,1.951-3.932c0.161-0.272-0.104-0.55-0.383-0.499
		c-1.27,0.235-2.48,0.684-3.683,1.144c-0.878,0.335-1.864,0.623-2.614,1.203c-0.01-0.012-0.015-0.025-0.028-0.036
		c-6.732-5.901-19.595-0.502-16.59,9.089c-0.019-0.004-0.033-0.014-0.053-0.017c-7.55-0.982-13.452-3.885-18.774-9.347
		C4.427,6.519,3.968,6.77,3.965,7.08C3.808,7.019,3.628,7.052,3.524,7.259c-1.538,3.072-1.585,9.065,1.313,11.59
		c-0.121-0.001-0.242-0.001-0.364-0.009c-0.646-0.039-1.26-0.17-1.896-0.261c-0.376-0.054-0.697,0.439-0.368,0.677
		c-0.061,0.058-0.105,0.138-0.114,0.24c-0.278,3.285,2.164,7.37,5.198,9.069c-0.17,0.019-0.339,0.037-0.508,0.047
		c-0.718,0.042-1.438,0.045-2.155,0.087c-0.308,0.018-0.469,0.355-0.381,0.594c-0.043,0.084-0.056,0.188-0.016,0.307
		c0.632,1.88,2.193,3.404,3.752,4.565c1.057,0.788,2.617,2.051,4.092,2.3c-1.625,0.461-3.165,1.131-4.846,1.441
		c-2.083,0.384-4.158,0.369-6.265,0.27c-0.211-0.01-0.299,0.208-0.247,0.375c-0.113-0.082-0.233-0.156-0.344-0.24
		c-0.245-0.185-0.498,0.199-0.313,0.406c6.255,7,20.476,7.944,28.639,4.347c7.061-3.11,11.646-9.018,14-15.884
		c0.048-0.035,0.063-0.089,0.048-0.145c1.256-3.721,1.871-7.713,1.848-11.702c-0.001-0.144-0.052-0.254-0.119-0.346
		c0.976-0.457,1.861-1.298,2.609-2.023c0.948-0.918,1.786-1.931,2.548-3.006C49.883,9.612,49.549,9.162,49.173,9.152z M46.38,12.028
		c-4.752-0.293-9.542-0.238-14.296-0.097c-0.099,0.003-0.099,0.154,0,0.154c4.665-0.018,9.32,0.147,13.981,0.228
		c-0.775,0.671-1.697,1.238-2.372,1.991c-4.991-0.104-9.999,0.086-14.982,0.342c-0.074,0.004-0.075,0.118,0,0.116
		c4.942-0.129,9.88-0.104,14.821-0.15c-0.011,0.088-0.002,0.179,0.027,0.262c-0.125,0.1-0.21,0.252-0.204,0.462
		c0.038,1.32-0.015,2.637-0.134,3.945c-1.498,0.072-5.808-0.324-6.498-0.314c-2.605,0.036-5.215,0.159-7.799,0.501
		c-0.086,0.011-0.092,0.144,0,0.139c3.348-0.175,6.676-0.395,10.031-0.337c0.861,0.015,3.014,0.49,4.241,0.261
		c-0.077,0.782-0.172,1.561-0.302,2.333c-0.02-0.01-0.033-0.026-0.06-0.026c-3.162-0.03-6.326,0.004-9.488,0.024
		c-0.109,0.001-0.109,0.167,0,0.169c3.162,0.05,6.326,0.115,9.488,0.115c0.009,0,0.012-0.007,0.02-0.009
		c-0.138,0.781-0.301,1.555-0.494,2.32c-4.569-0.638-9.267-0.614-13.864-0.37c-0.085,0.004-0.086,0.135,0,0.133
		c4.632-0.128,9.185,0.182,13.8,0.475c-0.195,0.746-0.408,1.486-0.656,2.212c-2.902-0.078-5.832,0.112-8.713,0.386
		c-0.103,0.01-0.106,0.169,0,0.162c2.87-0.179,5.728-0.186,8.596-0.223c-0.318,0.898-0.664,1.783-1.064,2.64
		c-4.48,0.085-8.961,0.178-13.44,0.316c-0.096,0.003-0.097,0.15,0,0.15c4.43-0.015,8.861-0.074,13.291-0.142
		c-0.296,0.613-0.611,1.216-0.95,1.803c-0.02-0.033-0.051-0.059-0.105-0.058c-3.444,0.069-6.906,0.472-10.34,0.748
		c-0.108,0.009-0.111,0.177,0,0.171c3.433-0.188,6.911-0.257,10.327-0.649c-0.558,0.946-1.153,1.869-1.828,2.733
		c-0.021-0.01-0.036-0.027-0.065-0.026c-4.778,0.115-9.556,0.206-14.336,0.27c-0.105,0.001-0.105,0.161,0,0.162
		c4.713,0.057,9.427,0.028,14.138-0.087c-0.921,1.14-1.94,2.204-3.072,3.164c0.016-0.066-0.015-0.143-0.105-0.148
		c-3.629-0.229-7.343,0.076-10.955,0.44c-0.082,0.008-0.085,0.137,0,0.131c3.652-0.246,7.294-0.2,10.947-0.332
		c-0.838,0.701-1.724,1.356-2.677,1.943c-0.019-0.015-0.037-0.032-0.066-0.034c-4.749-0.435-9.559-0.407-14.314-0.101
		c-0.073,0.005-0.074,0.116,0,0.114c4.689-0.134,9.334,0.004,14.015,0.239c-0.865,0.511-1.761,0.989-2.72,1.396
		c-4.526-0.236-9.093-0.133-13.624-0.134c-0.103,0-0.103,0.158,0,0.16c4.34,0.112,8.71,0.314,13.054,0.226
		c-0.025,0.01-0.047,0.022-0.072,0.032c-8.212,3.197-19.361,1.463-26.57-3.612c3.747,0.82,8.739,0.426,11.82-2.039
		c0.077-0.061,0.078-0.142,0.052-0.216c0.068-0.008,0.139,0,0.207-0.015c0.21-0.045,0.202-0.367,0-0.417
		c-1.42-0.35-3.129-1.866-4.298-2.729c-1.46-1.077-2.49-2.249-3.486-3.703c0.497,0.057,0.997,0.09,1.497,0.078
		c0.696-0.017,1.441-0.001,2.063-0.339c0.167-0.091,0.23-0.278,0.205-0.451c0.056-0.127,0.058-0.275-0.067-0.381
		c-1.475-1.251-2.962-2.255-4.063-3.893c-1.091-1.622-1.515-3.324-2.102-5.139c0.422,0.141,0.857,0.248,1.293,0.304
		c0.586,0.075,1.349,0.174,1.852-0.184c0.183-0.131,0.234-0.428,0.028-0.565c-0.012-0.02-0.008-0.041-0.026-0.06
		c-2.94-3.03-2.29-7.671-1.703-11.417c4.527,5.731,11.874,9.49,19.196,9.59c0.365,0.005,0.517-0.265,0.487-0.531
		c0.175-0.024,0.334-0.176,0.291-0.41c-0.701-3.837,0.879-7.836,4.415-9.731c2.789-1.495,5.972-1.069,8.8,0.064
		c-1.581,0.064-3.163,0.148-4.74,0.239c-0.108,0.006-0.109,0.171,0,0.169c1.777-0.036,3.558-0.08,5.335-0.157
		c0.56,0.248,1.105,0.518,1.626,0.807c0.091,0.051,0.186,0.051,0.271,0.023c0.058,0.069,0.132,0.124,0.228,0.125
		c1.128,0.012,2.274-0.575,3.32-0.966c0.767-0.287,1.526-0.582,2.261-0.935c-0.55,1.068-1.183,2.101-1.716,3.177
		c-3.154-0.388-6.31-0.276-9.432,0.365c-0.09,0.019-0.051,0.151,0.038,0.136c3.112-0.502,6.14-0.555,9.245-0.19
		c-0.16,0.34-0.314,0.684-0.443,1.037c-0.018,0.049-0.023,0.094-0.02,0.135c-0.212,0.224,0,0.684,0.338,0.564
		c1.393-0.496,2.818-0.799,4.28-0.858C47.523,10.86,46.974,11.465,46.38,12.028z"/>
	<path style="fill:#1D1D1B;" d="M43.045,17.053c-3.373,0.009-6.747,0.038-10.12,0.085c-0.081,0.001-0.082,0.125,0,0.127
		c3.373,0.047,6.747,0.076,10.12,0.085C43.237,17.351,43.237,17.053,43.045,17.053z"/>
</g>
<g>
</g>
<g>
</g>
<g>
</g>
<g>
</g>
<g>
</g>
<g>
</g>
<g>
</g>
<g>
</g>
<g>
</g>
<g>
</g>
<g>
</g>
<g>
</g>
<g>
</g>
<g>
</g>
<g>
</g>
</svg>
